<svg width="10" height="10" viewBox="0 0 10 10" fill="none" xmlns="http://www.w3.org/2000/svg">
<path d="M2.9346 1.02539H1.60978C1.37554 1.02539 1.15089 1.11844 0.985251 1.28408C0.819615 1.44971 0.726563 1.67436 0.726562 1.90861V3.23343M8.67551 3.23343V1.90861C8.67551 1.67436 8.58246 1.44971 8.41682 1.28408C8.25119 1.11844 8.02654 1.02539 7.7923 1.02539H6.46747M6.46747 8.97434H7.7923C8.02654 8.97434 8.25119 8.88129 8.41682 8.71565C8.58246 8.55002 8.67551 8.32537 8.67551 8.09112V6.7663M0.726562 6.7663V8.09112C0.726563 8.32537 0.819615 8.55002 0.985251 8.71565C1.15089 8.88129 1.37554 8.97434 1.60978 8.97434H2.9346" stroke="white" stroke-width="0.993619" stroke-linecap="round" stroke-linejoin="round"/>
</svg>
