<svg width="64" height="64" viewBox="0 0 64 64" fill="none" xmlns="http://www.w3.org/2000/svg">
<path d="M61.0808 19.0915C60.5571 19.6966 59.2201 21.2864 58.0947 22.6271C56.9694 23.9678 55.922 25.2017 55.766 25.3678C55.4206 25.7356 55.3872 25.7712 52.4123 29.3305C51.1086 30.8966 49.8496 32.3915 49.6267 32.6525C49.3928 32.9136 49.0585 33.2932 48.8914 33.5068C48.7131 33.7085 48.39 34.0881 48.1671 34.3373C47.9554 34.5864 47.1086 35.5831 46.2953 36.5678C45.4819 37.5407 44.6685 38.4898 44.4902 38.6678L44.1671 39H37.2591C32.4457 39 30.2841 38.9644 30.0947 38.8695C29.5822 38.6203 29.4262 37.9203 29.7827 37.4458C30.2173 36.8644 32.2563 36.0458 34.9192 35.3814C39.2535 34.2898 40.3343 33.8627 41.961 32.5695C43.4206 31.4068 44.3677 29.5915 44.6128 27.4322C44.8357 25.4864 44.2897 23.2678 43.2201 21.8203C42.6964 21.1203 41.727 20.1356 41.5487 20.1356C41.5153 20.1356 41.2256 19.9576 40.9025 19.7322C40.3008 19.3051 38.7744 18.7237 37.415 18.4034C36.3454 18.1542 33.2925 18.0475 32.1226 18.2254C31.61 18.3085 30.6518 18.5576 29.9944 18.7949C26.429 20.0288 24.4345 22.7339 24.4345 26.3169C24.4345 27.1475 24.4903 27.4915 24.7465 28.2034C25.3148 29.7695 26.6518 30.9085 28.2786 31.2051C30.2396 31.561 32.4011 30.2678 33.1365 28.2983C33.3705 27.6576 33.415 27.361 33.4039 26.3051C33.4039 25.1661 33.3705 25 33.0585 24.2881C32.3231 22.6627 30.8858 21.678 29.1142 21.583C28.2897 21.5356 28.0669 21.5712 27.4763 21.8322C27.0975 21.9864 26.7855 22.0932 26.7855 22.0458C26.7855 21.8915 27.6323 21.1085 28.3231 20.622C29.0919 20.1 30.4958 19.5305 31.7772 19.2458C32.702 19.0441 35.0418 19.0085 35.376 19.1864C35.922 19.5068 35.922 19.5305 35.922 26.7915V33.5661L35.4986 34.0169C35.1643 34.3729 34.9638 34.4915 34.5292 34.5508C33.5487 34.6932 30.5627 35.761 29.7939 36.2475C29.5822 36.378 29.1922 36.6153 28.9359 36.7695C28.0669 37.2797 26.0056 39.178 26.0056 39.4746C26.0056 39.522 25.9053 39.6881 25.7827 39.8424C24.9136 40.8983 24 43.8288 24 45.5373V46H31.3315H38.6518L39.2646 45.2644C39.5989 44.861 40.078 44.3034 40.3231 44.0305C40.5682 43.7576 41.0251 43.2237 41.3259 42.8559C41.6379 42.4881 42.0613 41.9898 42.273 41.7407C42.4847 41.5034 43.0529 40.839 43.5432 40.2695L44.4123 39.2373H49.5822H54.7521V42.6186V46H58.4847H62.2173V42.6186V39.2373H63.1086H64V38.7627V38.2881H63.1086H62.2173V28.1441C62.2173 22.2593 62.1727 18 62.117 18C62.0613 18 61.5933 18.4983 61.0808 19.0915ZM54.7187 38.2525C54.6964 38.2763 52.7465 38.2763 50.3844 38.2644L46.0947 38.2288L47.6546 36.3898C48.5014 35.3814 49.415 34.3136 49.6713 34.0169C49.9276 33.7203 51.1643 32.261 52.4123 30.7661L54.6964 28.0492L54.7298 33.1271C54.7409 35.9271 54.7409 38.2288 54.7187 38.2525Z" fill="white"/>
<path d="M11.5088 19.8575C11.2967 20.3156 10.906 21.2083 10.627 21.8191C9.34326 24.7087 9.00837 25.202 7.99256 25.7071C7.61302 25.8951 7.25581 26.0478 7.17767 26.0478C6.96558 26.0478 6.88744 26.2827 6.99907 26.5529C7.06605 26.6938 7.24465 27.1167 7.40093 27.4926C7.75814 28.3031 7.75814 28.3265 7.49023 28.9256C7.2 29.5599 6.5414 31.0517 5.69302 32.9781C5.30233 33.8473 4.8 34.9867 4.56558 35.5035C4.16372 36.3962 3.59442 37.6648 2.66791 39.7322C2.44465 40.249 2.05395 41.1182 1.80837 41.6703C0.245581 45.1707 0 45.7463 0 45.8872C0 45.9812 0.145116 46.0164 0.446512 45.993L0.893023 45.9577L1.96465 43.5497C2.55628 42.2224 3.14791 40.9186 3.28186 40.6484L3.51628 40.1433H8.29395C12.7367 40.1433 13.0716 40.1551 13.1274 40.343C13.1609 40.4605 13.3619 40.9186 13.5628 41.3767C13.7637 41.823 14.266 42.9624 14.6679 43.9021C15.0809 44.8418 15.4605 45.6875 15.5051 45.7815C15.5833 45.9342 16.1972 45.9577 19.8028 45.993C22.1135 46.0047 24 45.9812 24 45.946C24 45.899 23.8549 45.5701 23.6763 45.206C23.3526 44.5717 22.7944 43.3031 21.5553 40.4957C20.9302 39.0744 20.3163 37.7001 19.7023 36.3258C19.5014 35.8677 18.9991 34.74 18.586 33.8003C17.8047 32.0149 17.3581 31.0282 16.5767 29.278C16.32 28.6907 15.8177 27.563 15.4605 26.7525C15.1144 25.9421 14.6567 24.9084 14.4558 24.462C14.2437 24.0039 13.9088 23.2404 13.6967 22.7588C12.8707 20.8324 12.0112 19 11.9553 19C11.9219 19 11.7209 19.3876 11.5088 19.8575ZM9.30977 31.7682C9.84558 32.9898 10.4037 34.2349 10.5488 34.5638C10.694 34.881 11.1405 35.9146 11.5535 36.8543C11.9665 37.794 12.3684 38.6985 12.4577 38.8747L12.6251 39.2036H8.32744C4.95628 39.2036 4.0186 39.1684 4.0186 39.0509C4.0186 38.9804 4.21953 38.4871 4.45395 37.9702C4.69953 37.4534 5.38047 35.9264 5.97209 34.5638C6.57488 33.2013 7.27814 31.6155 7.54605 31.0399C7.81395 30.4526 8.05954 29.8888 8.08186 29.7713C8.11535 29.6656 8.18233 29.5717 8.23814 29.5717C8.29395 29.5717 8.77395 30.5583 9.30977 31.7682Z" fill="white"/>
</svg>
